<?xml version="1.0" standalone="no"?>
<!DOCTYPE svg PUBLIC "-//W3C//DTD SVG 20010904//EN"
 "http://www.w3.org/TR/2001/REC-SVG-20010904/DTD/svg10.dtd">
<svg version="1.0" xmlns="http://www.w3.org/2000/svg"
 width="512.000000pt" height="512.000000pt" viewBox="0 0 512.000000 512.000000"
 preserveAspectRatio="xMidYMid meet">

<g transform="translate(0.000000,512.000000) scale(0.100000,-0.100000)"
fill="#000000" stroke="none">
<path d="M581 4176 c-53 -19 -111 -74 -137 -130 l-24 -51 0 -1287 0 -1288 -95
0 c-88 0 -98 -2 -120 -25 -24 -23 -25 -31 -25 -133 0 -175 36 -253 142 -306
l52 -26 2186 0 2186 0 52 26 c106 53 142 131 142 306 0 102 -1 110 -25 133
-22 23 -32 25 -120 25 l-95 0 0 1288 c0 1273 -1 1287 -21 1332 -27 60 -64 98
-124 126 l-50 24 -1945 -1 c-1501 0 -1953 -3 -1979 -13z m3945 -160 l34 -34 0
-1281 0 -1281 -748 0 c-607 0 -752 -3 -766 -13 -10 -8 -21 -31 -25 -53 l-6
-39 -455 0 -455 0 -6 39 c-4 22 -15 45 -25 53 -14 10 -159 13 -766 13 l-748 0
0 1281 0 1281 34 34 34 34 1932 0 1932 0 34 -34z m-2559 -2779 c9 -31 20 -47
38 -55 37 -17 1073 -17 1110 0 18 8 29 24 38 55 l11 43 818 0 818 0 0 -60 c0
-66 -17 -110 -52 -134 -20 -14 -242 -16 -2188 -16 -1946 0 -2168 2 -2188 16
-35 24 -52 68 -52 134 l0 60 818 0 818 0 11 -43z"/>
<path d="M706 3898 c-14 -20 -16 -147 -16 -1165 0 -1130 0 -1143 20 -1163 20
-20 33 -20 1850 -20 1817 0 1830 0 1850 20 20 20 20 33 20 1163 0 1018 -2
1145 -16 1165 l-15 22 -1839 0 -1839 0 -15 -22z m3584 -1163 l0 -1045 -1730 0
-1730 0 0 1045 0 1045 1730 0 1730 0 0 -1045z"/>
</g>
</svg>
